<svg width="21" height="22" viewBox="0 0 21 22" fill="none" xmlns="http://www.w3.org/2000/svg">
<g id="Group">
<g id="Layer_110">
<path id="Shape" fill-rule="evenodd" clip-rule="evenodd" d="M16.1223 20.8184C18.6109 19.92 20.2642 17.552 20.25 14.9062C20.2594 13.5401 19.8203 12.2087 19 11.1162C19.0047 11.0463 19.0047 10.9761 19 10.9062V3.68622C18.9672 2.12156 17.6748 0.878325 16.11 0.906222H2.89C1.32524 0.878325 0.0328148 2.12156 0 3.68622V16.1262C0.0328148 17.6909 1.32524 18.9341 2.89 18.9062H9C9.05656 18.911 9.11344 18.911 9.17 18.9062C10.8491 20.9509 13.6338 21.7168 16.1223 20.8184ZM14 6.90622H5C4.44772 6.90622 4 6.45851 4 5.90622C4 5.35394 4.44772 4.90622 5 4.90622H14C14.5523 4.90622 15 5.35394 15 5.90622C15 6.45851 14.5523 6.90622 14 6.90622ZM16 13.9062H14.41L14.71 13.6162C15.1021 13.2241 15.1021 12.5883 14.71 12.1962C14.3179 11.8041 13.6821 11.8041 13.29 12.1962L11.29 14.1962C11.199 14.2913 11.1276 14.4035 11.08 14.5262C10.98 14.7697 10.98 15.0428 11.08 15.2862C11.1276 15.409 11.199 15.5211 11.29 15.6162L13.29 17.6162C13.4778 17.8055 13.7334 17.912 14 17.912C14.2666 17.912 14.5222 17.8055 14.71 17.6162C14.8993 17.4285 15.0058 17.1729 15.0058 16.9062C15.0058 16.6396 14.8993 16.384 14.71 16.1962L14.41 15.9062H16C16.5523 15.9062 17 15.4585 17 14.9062C17 14.3539 16.5523 13.9062 16 13.9062ZM14 8.65622C15.0491 8.65452 16.0814 8.91948 17 9.42622V3.68622C16.9679 3.2259 16.5705 2.87764 16.11 2.90622H2.89C2.42945 2.87764 2.03207 3.2259 2 3.68622V16.1262C2.03207 16.5865 2.42945 16.9348 2.89 16.9062H8.08C7.43579 14.9989 7.74975 12.8981 8.92344 11.2624C10.0971 9.6268 11.9868 8.65666 14 8.65622ZM14 10.6562C16.3472 10.6562 18.25 12.559 18.25 14.9062C18.2445 17.2512 16.3449 19.1507 14 19.1562C11.6528 19.1562 9.75 17.2534 9.75 14.9062C9.75 12.559 11.6528 10.6562 14 10.6562Z" fill="#231F20"/>
</g>
</g>
</svg>
